<svg xmlns="http://www.w3.org/2000/svg" width="1749.141" height="763.737" viewBox="0 0 1749.141 763.737">
  <g id="Group_2433" data-name="Group 2433" transform="translate(53.521 -4372.604)" opacity="0.24">
    <path id="Path_2635" data-name="Path 2635" d="M296.461,441.432c113.15,29.957,212.286-49.576,242.242-162.726S519.482,56.39,406.331,26.433,167.91,59.457,137.954,172.608s31.905,227.318,142.909,264.447A119.492,119.492,0,0,0,296.461,441.432Z" transform="translate(-183.427 4428.998)" fill="none" stroke="#616365" stroke-miterlimit="10" stroke-width="1"/>
    <path id="Path_2636" data-name="Path 2636" d="M1101.889,222.362c1.06-89.414-13.989-98.282-77.422-161.307-26.837-26.664-73.388-13.55-73.836,24.279-1.059,89.414,23.014,93.262,79.582,162.516C1058.617,282.625,1101.441,260.191,1101.889,222.362Z" transform="translate(553.174 4699.309)" fill="none" stroke="#616365" stroke-miterlimit="10" stroke-width="1"/>
    <path id="Path_2678" data-name="Path 2678" d="M1333.44,490.72c2.682-226.261-35.4-248.7-195.917-408.185-67.912-67.474-185.708-34.288-186.842,61.439-2.681,226.261,58.236,236,201.382,411.244C1223.941,643.213,1332.306,586.445,1333.44,490.72Z" transform="translate(412.421 4097.7) rotate(14)" fill="none" stroke="#616365" stroke-miterlimit="10" stroke-width="1"/>
    <path id="Path_2679" data-name="Path 2679" d="M330.536,528.127c136.372,36.1,255.853-59.75,291.958-196.123S599.327,64.063,462.955,27.959,175.6,67.76,139.5,204.133,177.951,478.1,311.736,522.851C324.344,527.068,330.536,528.127,330.536,528.127Z" transform="matrix(0.695, 0.719, -0.719, 0.695, 497.812, 4308.164)" fill="none" stroke="#616365" stroke-miterlimit="10" stroke-width="1"/>
    <path id="Path_2680" data-name="Path 2680" d="M161.007,96.8c20.84,5.517,39.1-9.131,44.616-29.971s-3.54-40.946-24.38-46.463-43.912,6.082-49.429,26.922A40.167,40.167,0,0,0,158.134,96,22.007,22.007,0,0,0,161.007,96.8Z" transform="matrix(0.695, 0.719, -0.719, 0.695, 215.302, 4599.327)" fill="none" stroke="#616365" stroke-miterlimit="10" stroke-width="1"/>
    <path id="Path_2681" data-name="Path 2681" d="M1044.1,155.39c.655-55.262-8.646-60.742-47.85-99.695-16.587-16.48-45.357-8.374-45.634,15.006-.655,55.262,14.223,57.64,49.185,100.442C1017.358,192.635,1043.825,178.77,1044.1,155.39Z" transform="translate(328.174 4671.288)" fill="none" stroke="#616365" stroke-miterlimit="10" stroke-width="1"/>
    <path id="Path_2682" data-name="Path 2682" d="M1044.1,155.39c.655-55.262-8.646-60.742-47.85-99.695-16.587-16.48-45.357-8.374-45.634,15.006-.655,55.262,14.223,57.64,49.185,100.442C1017.358,192.635,1043.825,178.77,1044.1,155.39Z" transform="translate(245.174 4593.57)" fill="none" stroke="#616365" stroke-miterlimit="10" stroke-width="1"/>
  </g>
</svg>